<svg xmlns="http://www.w3.org/2000/svg" width="1400" height="1020" viewBox="0 0 1400 1020" font-family="monospace">
  <rect width="1400" height="1020" fill="#fafafa"/>
  <text x="700" y="44" text-anchor="middle" font-size="24" font-weight="bold" fill="#222">CyclUno deck — sheet 2/2: POWER + GND (W18–W31)</text>
  <text x="700" y="70" text-anchor="middle" font-size="13" fill="#666">every 5 V and GND wire · ● = junction (same net) · signal wires are on sheet 1 · chains may also be wired as a star — same net</text>

  <!-- ================= Arduino Uno (same skeleton as sheet 1) ============ -->
  <rect x="560" y="140" width="280" height="620" rx="10" fill="#0f7391" stroke="#0a5468" stroke-width="2"/>
  <text x="700" y="170" text-anchor="middle" font-size="16" font-weight="bold" fill="#fff">Arduino Uno R3</text>
  <text x="700" y="742" text-anchor="middle" font-size="11" fill="#bfe3ee">USB → host (powers everything: ~60 mA total)</text>

  <g font-size="12" fill="#fff">
    <text x="572" y="304">GND</text>
  </g>
  <g font-size="12" fill="#fff" text-anchor="end">
    <text x="828" y="304">5V</text>
    <text x="828" y="334">GND</text>
    <text x="828" y="364">GND</text>
  </g>
  <g font-size="11" fill="#bfe3ee">
    <text x="700" y="304" text-anchor="middle">only the pins used</text>
    <text x="700" y="322" text-anchor="middle">on this sheet are shown —</text>
    <text x="700" y="340" text-anchor="middle">signals: sheet 1</text>
  </g>
  <g fill="#0a5468">
    <circle cx="560" cy="300" r="4"/>
    <circle cx="840" cy="300" r="4"/><circle cx="840" cy="330" r="4"/>
    <circle cx="840" cy="360" r="4"/>
  </g>
  <text x="875" y="364" font-size="11" fill="#999">— spare GND (unused)</text>

  <!-- ================= LEFT modules ================= -->

  <!-- buttons Y X MODE -->
  <rect x="120" y="346" width="320" height="92" rx="8" fill="#eef6ee" stroke="#5a8a5a" stroke-width="2"/>
  <g font-size="12" fill="#333">
    <text x="134" y="364">[ Y ]    leg2 ●──W31</text>
    <text x="134" y="394">[ X ]    leg2 ●──W30</text>
    <text x="134" y="424">[MODE]   leg2 ●──W29</text>
  </g>

  <!-- LEDs with resistors -->
  <rect x="120" y="494" width="320" height="64" rx="8" fill="#fdf3e7" stroke="#c77b30" stroke-width="2"/>
  <g font-size="12" fill="#333">
    <text x="134" y="514">LINK ▷|─[220Ω]─● W27</text>
    <text x="134" y="544">REC  ▷|─[220Ω]─● W26</text>
  </g>

  <!-- button B -->
  <rect x="120" y="560" width="320" height="26" rx="6" fill="#eef6ee" stroke="#5a8a5a" stroke-width="2"/>
  <text x="134" y="577" font-size="12" fill="#333">[ B ]    leg2 ●──W28</text>

  <!-- KY-040 -->
  <rect x="120" y="612" width="320" height="140" rx="8" fill="#f3ecfa" stroke="#7b4fa6" stroke-width="2"/>
  <g font-size="12" fill="#333">
    <text x="134" y="640">+     ● W21 (end of chain B)</text>
    <text x="134" y="676">GND   ● W25 (end of chain A)</text>
  </g>
  <text x="134" y="742" font-size="11" font-weight="bold" fill="#5b3480">KY-040 — module pull-ups need the + wire!</text>

  <!-- ================= RIGHT modules ================= -->

  <!-- HW-504 #1 -->
  <rect x="960" y="420" width="360" height="112" rx="8" fill="#eaf0fa" stroke="#3a6ea5" stroke-width="2"/>
  <g font-size="12" fill="#333">
    <text x="974" y="454">+5V  ● W18 in · W19 out</text>
    <text x="974" y="490">GND  ● W22 in · W23 out</text>
  </g>
  <text x="974" y="526" font-size="11" font-weight="bold" fill="#274c77">HW-504 #1 — SW returns through module GND (no extra wire)</text>

  <!-- HW-504 #2 -->
  <rect x="960" y="560" width="360" height="112" rx="8" fill="#e8f4f4" stroke="#177e89" stroke-width="2"/>
  <g font-size="12" fill="#333">
    <text x="974" y="594">+5V  ● W19 in · W20 out</text>
    <text x="974" y="630">GND  ● W23 in · W24 out</text>
  </g>
  <text x="974" y="662" font-size="11" font-weight="bold" fill="#0f5e66">HW-504 #2 — SW returns through module GND (no extra wire)</text>

  <!-- OLED -->
  <rect x="960" y="690" width="360" height="100" rx="8" fill="#fef7e6" stroke="#c9a227" stroke-width="2"/>
  <g font-size="12" fill="#333">
    <text x="974" y="724">VCC  ● W20 in · W21 out</text>
    <text x="974" y="760">GND  ● W24 in · W25 out</text>
  </g>
  <text x="974" y="780" font-size="11" font-weight="bold" fill="#8a6d1a">OLED — onboard I2C pull-ups hang on this VCC</text>

  <!-- ================= CHAIN B: 5V (red) ================= -->
  <!-- W18: 5V pin -> joy1 +5V -->
  <path d="M 860 300 H 918 V 450 H 960" fill="none" stroke="#d62828" stroke-width="4"/>
  <!-- W19: joy1 + -> joy2 + (hop on the right) -->
  <path d="M 1320 450 H 1352 V 590 H 1320" fill="none" stroke="#d62828" stroke-width="4"/>
  <!-- W20: joy2 + -> OLED VCC -->
  <path d="M 1320 590 H 1352 V 720 H 1320" fill="none" stroke="#d62828" stroke-width="4"/>
  <!-- W21: OLED VCC -> around the bottom -> KY-040 + -->
  <path d="M 960 720 H 940 V 840 H 88 V 636 H 120" fill="none" stroke="#d62828" stroke-width="4"/>
  <g fill="#d62828">
    <circle cx="960" cy="450" r="5"/><circle cx="1320" cy="450" r="5"/>
    <circle cx="1320" cy="590" r="5"/><circle cx="960" cy="590" r="0"/>
    <circle cx="1320" cy="720" r="5"/><circle cx="960" cy="720" r="5"/>
    <circle cx="120" cy="636" r="5"/>
  </g>
  <g font-size="11" font-weight="bold" fill="#d62828">
    <text x="924" y="380">W18</text>
    <text x="1358" y="524">W19</text>
    <text x="1358" y="660">W20</text>
    <text x="500" y="834">W21 — chain B crosses under the board</text>
  </g>

  <!-- ================= CHAIN A: module GND (black) ================= -->
  <!-- W22: GND pin -> joy1 GND -->
  <path d="M 860 330 H 900 V 486 H 960" fill="none" stroke="#333333" stroke-width="4"/>
  <!-- W23: joy1 GND -> joy2 GND -->
  <path d="M 1320 486 H 1372 V 626 H 1320" fill="none" stroke="#333333" stroke-width="4"/>
  <!-- W24: joy2 GND -> OLED GND -->
  <path d="M 1320 626 H 1372 V 756 H 1320" fill="none" stroke="#333333" stroke-width="4"/>
  <!-- W25: OLED GND -> around the bottom -> KY-040 GND -->
  <path d="M 960 756 H 924 V 862 H 104 V 672 H 120" fill="none" stroke="#333333" stroke-width="4"/>
  <g fill="#333333">
    <circle cx="960" cy="486" r="5"/><circle cx="1320" cy="486" r="5"/>
    <circle cx="1320" cy="626" r="5"/><circle cx="1320" cy="756" r="5"/>
    <circle cx="960" cy="756" r="5"/><circle cx="120" cy="672" r="5"/>
  </g>
  <g font-size="11" font-weight="bold" fill="#333">
    <text x="905" y="420">W22</text>
    <text x="1378" y="560">W23</text>
    <text x="1378" y="696">W24</text>
    <text x="500" y="882">W25 — chain A crosses under the board</text>
  </g>

  <!-- ================= CHAIN C: buttons + LEDs GND (grey bus) =========== -->
  <!-- W26: digital GND -> REC resistor; then hops up/down the left column -->
  <path d="M 560 300 H 480 V 570 H 440" fill="none" stroke="#666666" stroke-width="4"/>
  <path d="M 480 360 H 440" fill="none" stroke="#666666" stroke-width="4"/>
  <path d="M 480 390 H 440" fill="none" stroke="#666666" stroke-width="4"/>
  <path d="M 480 420 H 440" fill="none" stroke="#666666" stroke-width="4"/>
  <path d="M 480 510 H 440" fill="none" stroke="#666666" stroke-width="4"/>
  <path d="M 480 540 H 440" fill="none" stroke="#666666" stroke-width="4"/>
  <g fill="#666666">
    <circle cx="480" cy="360" r="5"/><circle cx="480" cy="390" r="5"/>
    <circle cx="480" cy="420" r="5"/><circle cx="480" cy="510" r="5"/>
    <circle cx="480" cy="540" r="5"/><circle cx="480" cy="570" r="5"/>
    <circle cx="560" cy="300" r="5"/>
  </g>
  <text x="490" y="470" font-size="11" font-weight="bold" fill="#666">chain C</text>
  <text x="490" y="486" font-size="11" fill="#666">W26–W31</text>

  <!-- ================= legend / wire list ================= -->
  <rect x="120" y="900" width="1200" height="96" rx="8" fill="#f0f0f0" stroke="#ccc"/>
  <g font-size="12" fill="#333">
    <text x="140" y="926" font-weight="bold">14 power wires — three chains, all electrically just 5V or GND (star wiring works too):</text>
    <text x="140" y="950"><tspan fill="#d62828" font-weight="bold">chain B (5V):</tspan> W18 5V→joy1+ · W19 joy1→joy2 · W20 joy2→OLED VCC · W21 OLED→KY-040 +</text>
    <text x="140" y="972"><tspan font-weight="bold">chain A (GND):</tspan> W22 GND→joy1 · W23 joy1→joy2 · W24 joy2→OLED · W25 OLED→KY-040   <tspan fill="#666" font-weight="bold">chain C (GND):</tspan> W26 GND→REC-Ω · W27 →LINK-Ω · W28 →B · W29 →MODE · W30 →X · W31 →Y</text>
  </g>
</svg>
