<svg xmlns="http://www.w3.org/2000/svg" width="1000" height="640" viewBox="0 0 1000 640" font-family="monospace">
  <rect width="1000" height="640" fill="#fafafa"/>
  <text x="500" y="42" text-anchor="middle" font-size="24" font-weight="bold" fill="#222">CyclUno deck — console layout</text>
  <text x="500" y="66" text-anchor="middle" font-size="13" fill="#666">two-handed for APP mode</text>

  <!-- panel -->
  <rect x="70" y="90" width="860" height="480" rx="28" fill="#1d2733" stroke="#101820" stroke-width="3"/>

  <!-- OLED 128x128 (square) -->
  <rect x="404" y="112" width="192" height="192" rx="8" fill="#05080c" stroke="#3b4a5a" stroke-width="2"/>
  <rect x="416" y="124" width="168" height="168" rx="4" fill="#0a1420"/>
  <g font-size="13" fill="#5ad1ff">
    <text x="424" y="142">HOME      ·REC</text>
    <text x="424" y="162">demo 45% r2</text>
    <text x="424" y="180">shell idle</text>
    <text x="424" y="198">cyclops idle</text>
    <text x="424" y="216">note: gm mail</text>
    <text x="424" y="234">note: 5x5 squat</text>
    <text x="424" y="252">mem: 12 facts</text>
    <text x="424" y="282">A:rec  B:menu</text>
  </g>
  <text x="500" y="320" text-anchor="middle" font-size="11" fill="#8aa0b5">OLED 128x128 — 16-row aion HUD</text>
  <circle cx="762" cy="360" r="78" fill="#0e161e" stroke="#3b4a5a" stroke-width="3"/>
  <circle cx="762" cy="360" r="44" fill="#2c3a49" stroke="#177e89" stroke-width="2"/>
  <circle cx="762" cy="360" r="30" fill="#3b4a5a"/>
  <text x="762" y="467" text-anchor="middle" font-size="13" font-weight="bold" fill="#c7d3df">JOY 2 · move</text>
  <text x="762" y="485" text-anchor="middle" font-size="11" fill="#8aa0b5">workspaces / pad axes</text>

  <!-- X Y buttons -->
  <circle cx="884" cy="310" r="24" fill="#2c3a49" stroke="#55b552" stroke-width="3"/>
  <text x="884" y="316" text-anchor="middle" font-size="15" font-weight="bold" fill="#c7d3df">X</text>
  <text x="884" y="272" text-anchor="middle" font-size="10" fill="#8aa0b5">pause</text>
  <circle cx="884" cy="410" r="24" fill="#2c3a49" stroke="#2a9d3f" stroke-width="3"/>
  <text x="884" y="416" text-anchor="middle" font-size="15" font-weight="bold" fill="#c7d3df">Y</text>
  <text x="884" y="452" text-anchor="middle" font-size="10" fill="#8aa0b5">cancel</text>

  <!-- B + MODE bottom -->
  <circle cx="370" cy="535" r="22" fill="#2c3a49" stroke="#5a8a5a" stroke-width="3"/>
  <text x="370" y="541" text-anchor="middle" font-size="14" font-weight="bold" fill="#c7d3df">B</text>
  <text x="410" y="540" font-size="10" fill="#8aa0b5">back</text>

  <circle cx="600" cy="535" r="22" fill="#2c3a49" stroke="#5ad1ff" stroke-width="3"/>
  <text x="600" y="540" text-anchor="middle" font-size="10" font-weight="bold" fill="#c7d3df">MODE</text>
  <text x="640" y="540" font-size="10" fill="#8aa0b5">AION ⇄ APP</text>

  <!-- usage notes -->
  <g font-size="12" fill="#444">
    <text x="100" y="600">AION: joy2 hops workspaces · X/Y pause/cancel</text>
    <text x="100" y="620">APP:  joy2 + face buttons become the "CyclUno Pad" gamepad</text>
  </g>
</svg>
