<svg xmlns="http://www.w3.org/2000/svg" width="1150" height="800" viewBox="0 0 1150 800" font-family="monospace">
  <rect width="1150" height="800" fill="#fafafa"/>
  <text x="575" y="46" text-anchor="middle" font-size="24" font-weight="bold" fill="#222">CyclUno deck — wiring</text>
  <text x="575" y="72" text-anchor="middle" font-size="13" fill="#666">all buttons close to GND (internal pullups) · both joystick VCC to 5 V rail · crossings without dots are not joined</text>

  <!-- ================= Arduino Uno ================= -->
  <rect x="460" y="120" width="240" height="540" rx="10" fill="#0f7391" stroke="#0a5468" stroke-width="2"/>
  <text x="580" y="148" text-anchor="middle" font-size="16" font-weight="bold" fill="#fff">Arduino Uno R3</text>
  <text x="580" y="640" text-anchor="middle" font-size="11" fill="#bfe3ee">USB → host (115200, v2 frames)</text>

  <!-- left (digital) pin labels, baseline = wire y + 4 -->
  <g font-size="12" fill="#fff">
    <text x="472" y="164">D13</text><text x="472" y="204">D12</text>
    <text x="472" y="244">D11</text><text x="472" y="284">D10</text>
    <text x="472" y="324">D9</text><text x="472" y="364">D8</text>
    <text x="472" y="404">D7</text><text x="472" y="444">D6</text>
    <text x="472" y="484">D5</text><text x="472" y="524">D4</text>
    <text x="472" y="564">D3</text><text x="472" y="604">D2</text>
  </g>
  <!-- right (power + analog) pin labels -->
  <g font-size="12" fill="#fff" text-anchor="end">
    <text x="688" y="164">5V</text><text x="688" y="204">GND</text>
    <text x="688" y="284">A0</text><text x="688" y="324">A1</text>
    <text x="688" y="364">A2</text><text x="688" y="404">A3</text>
    <text x="688" y="444">A4 SDA</text><text x="688" y="484">A5 SCL</text>
  </g>
  <!-- pin dots -->
  <g fill="#0a5468">
    <circle cx="460" cy="160" r="4"/><circle cx="460" cy="200" r="4"/>
    <circle cx="460" cy="240" r="4"/><circle cx="460" cy="280" r="4"/>
    <circle cx="460" cy="320" r="4"/><circle cx="460" cy="360" r="4"/>
    <circle cx="460" cy="400" r="4"/><circle cx="460" cy="440" r="4"/>
    <circle cx="460" cy="480" r="4"/><circle cx="460" cy="520" r="4"/>
    <circle cx="460" cy="560" r="4"/><circle cx="460" cy="600" r="4"/>
    <circle cx="700" cy="160" r="4"/><circle cx="700" cy="200" r="4"/>
    <circle cx="700" cy="280" r="4"/><circle cx="700" cy="320" r="4"/>
    <circle cx="700" cy="360" r="4"/><circle cx="700" cy="400" r="4"/>
    <circle cx="700" cy="440" r="4"/><circle cx="700" cy="480" r="4"/>
  </g>

  <!-- ================= LEFT: digital side ================= -->

  <!-- D13 note -->
  <rect x="150" y="146" width="180" height="28" rx="6" fill="none" stroke="#999" stroke-dasharray="5,4"/>
  <text x="240" y="164" text-anchor="middle" font-size="11" fill="#666">D13 onboard LED = APP mode</text>
  <line x1="330" y1="160" x2="460" y2="160" stroke="#999" stroke-width="2" stroke-dasharray="5,4"/>

  <!-- push buttons Y X MODE (wires 200/240/280) -->
  <rect x="60" y="186" width="270" height="126" rx="8" fill="#eef6ee" stroke="#5a8a5a" stroke-width="2"/>
  <g font-size="12" fill="#333">
    <text x="76" y="204">[ Y ]   cancel · pad north</text>
    <text x="76" y="244">[ X ]   pause  · pad west</text>
    <text x="76" y="284">[MODE]  AION ⇄ APP</text>
  </g>
  <text x="76" y="304" font-size="11" font-weight="bold" fill="#396039">push buttons — other leg to GND</text>
  <line x1="330" y1="200" x2="460" y2="200" stroke="#2a9d3f" stroke-width="3"/>
  <line x1="330" y1="240" x2="460" y2="240" stroke="#55b552" stroke-width="3"/>
  <line x1="330" y1="280" x2="460" y2="280" stroke="#8ac926" stroke-width="3"/>

  <!-- J2 SW tag (wire 360) -->
  <rect x="185" y="346" width="145" height="28" rx="6" fill="#e8f4f4" stroke="#177e89" stroke-width="2" stroke-dasharray="5,4"/>
  <text x="257" y="364" text-anchor="middle" font-size="11" fill="#177e89">HW-504 #2 SW</text>
  <line x1="330" y1="360" x2="460" y2="360" stroke="#177e89" stroke-width="3"/>

  <!-- LEDs (wires 400/440) -->
  <rect x="60" y="388" width="270" height="82" rx="8" fill="#fdf3e7" stroke="#c77b30" stroke-width="2"/>
  <g font-size="12" fill="#333">
    <text x="76" y="404">● LINK   frames alive</text>
    <text x="76" y="444">● REC    cyclops HUD</text>
  </g>
  <text x="76" y="462" font-size="11" font-weight="bold" fill="#8a5420">anode to pin · 220 Ω to GND</text>
  <line x1="330" y1="400" x2="460" y2="400" stroke="#f9a03f" stroke-width="3"/>
  <line x1="330" y1="440" x2="460" y2="440" stroke="#d94a2b" stroke-width="3"/>

  <!-- button B (wire 480) -->
  <rect x="150" y="472" width="180" height="26" rx="6" fill="#eef6ee" stroke="#5a8a5a" stroke-width="2"/>
  <text x="240" y="489" text-anchor="middle" font-size="11" fill="#396039">[ B ] back — to GND</text>
  <line x1="330" y1="480" x2="460" y2="480" stroke="#5a8a5a" stroke-width="3"/>

  <!-- J1 SW tag (wire 520) -->
  <rect x="185" y="506" width="145" height="28" rx="6" fill="#eaf0fa" stroke="#3a6ea5" stroke-width="2" stroke-dasharray="5,4"/>
  <text x="257" y="524" text-anchor="middle" font-size="11" fill="#3a6ea5">HW-504 #1 SW (A)</text>
  <line x1="330" y1="520" x2="460" y2="520" stroke="#3a6ea5" stroke-width="3"/>

  <!-- KY-040 (wires DT 560, CLK 600, SW routed from 640) -->
  <rect x="60" y="544" width="270" height="120" rx="8" fill="#f3ecfa" stroke="#7b4fa6" stroke-width="2"/>
  <g font-size="12" fill="#333">
    <text x="76" y="564">DT</text>
    <text x="76" y="604">CLK    interrupt pins!</text>
    <text x="76" y="644">SW     wheel click</text>
  </g>
  <text x="76" y="659" font-size="11" font-weight="bold" fill="#5b3480">KY-040 wheel — + → 5 V · GND → GND</text>
  <line x1="330" y1="560" x2="460" y2="560" stroke="#9d4edd" stroke-width="3"/>
  <line x1="330" y1="600" x2="460" y2="600" stroke="#7b2cbf" stroke-width="3"/>
  <path d="M 330 640 H 395 V 320 H 460" fill="none" stroke="#c77dff" stroke-width="3"/>

  <!-- ================= RIGHT: power + analog side ================= -->

  <!-- power rails (wires 160/200) -->
  <rect x="830" y="140" width="270" height="86" rx="8" fill="#fdeaea" stroke="#b02e2e" stroke-width="2"/>
  <text x="846" y="164" font-size="12" fill="#b02e2e">+5 V  ══════════════</text>
  <text x="846" y="204" font-size="12" fill="#333">GND   ══════════════</text>
  <text x="846" y="220" font-size="10" fill="#8a1f1f">rails feed every module + buttons + LEDs</text>
  <line x1="720" y1="160" x2="830" y2="160" stroke="#d62828" stroke-width="4"/>
  <line x1="720" y1="200" x2="830" y2="200" stroke="#333333" stroke-width="4"/>

  <!-- HW-504 #1 (wires 280/320) -->
  <rect x="830" y="262" width="270" height="90" rx="8" fill="#eaf0fa" stroke="#3a6ea5" stroke-width="2"/>
  <g font-size="12" fill="#333">
    <text x="846" y="284">VRy    scroll HUD</text>
    <text x="846" y="324">VRx    A / B flicks</text>
  </g>
  <text x="846" y="340" font-size="11" font-weight="bold" fill="#274c77">HW-504 #1 nav · SW→D4 · 5V/GND→rails</text>
  <line x1="720" y1="280" x2="830" y2="280" stroke="#3a6ea5" stroke-width="3"/>
  <line x1="720" y1="320" x2="830" y2="320" stroke="#6096ba" stroke-width="3"/>

  <!-- HW-504 #2 (wires 360/400) -->
  <rect x="830" y="354" width="270" height="88" rx="8" fill="#e8f4f4" stroke="#177e89" stroke-width="2"/>
  <g font-size="12" fill="#333">
    <text x="846" y="364">VRy    pad Y axis</text>
    <text x="846" y="404">VRx    pad X axis</text>
  </g>
  <text x="846" y="430" font-size="11" font-weight="bold" fill="#0f5e66">HW-504 #2 app · SW→D8 · 5V/GND→rails</text>
  <line x1="720" y1="360" x2="830" y2="360" stroke="#177e89" stroke-width="3"/>
  <line x1="720" y1="400" x2="830" y2="400" stroke="#4cb8c4" stroke-width="3"/>

  <!-- OLED (wires jog 440->492, 480->528) -->
  <rect x="830" y="452" width="270" height="94" rx="8" fill="#fef7e6" stroke="#c9a227" stroke-width="2"/>
  <text x="846" y="472" font-size="11" font-weight="bold" fill="#8a6d1a">OLED SSD1306 — I2C addr 0x3C</text>
  <g font-size="12" fill="#333">
    <text x="846" y="496">SDA    aion status HUD</text>
    <text x="846" y="532">SCL    128x32 or 128x64</text>
  </g>
  <path d="M 720 440 H 800 V 492 H 830" fill="none" stroke="#e9c46a" stroke-width="3"/>
  <path d="M 720 480 H 785 V 528 H 830" fill="none" stroke="#f4a261" stroke-width="3"/>

  <!-- ================= legend ================= -->
  <rect x="60" y="700" width="1040" height="70" rx="8" fill="#f0f0f0" stroke="#ccc"/>
  <g font-size="12" fill="#333">
    <rect x="80" y="716" width="26" height="5" fill="#d62828"/><text x="112" y="725">5 V</text>
    <rect x="80" y="740" width="26" height="5" fill="#333333"/><text x="112" y="749">GND</text>
    <rect x="180" y="716" width="26" height="5" fill="#3a6ea5"/><text x="212" y="725">joystick 1 (nav)</text>
    <rect x="180" y="740" width="26" height="5" fill="#177e89"/><text x="212" y="749">joystick 2 (app)</text>
    <rect x="380" y="716" width="26" height="5" fill="#7b2cbf"/><text x="412" y="725">KY-040 wheel</text>
    <rect x="380" y="740" width="26" height="5" fill="#2a9d3f"/><text x="412" y="749">buttons (to GND)</text>
    <rect x="580" y="716" width="26" height="5" fill="#f9a03f"/><text x="612" y="725">LEDs (220 Ω)</text>
    <rect x="580" y="740" width="26" height="5" fill="#e9c46a"/><text x="612" y="749">I2C (OLED)</text>
    <text x="790" y="725" fill="#666">dashed = same net, drawn apart</text>
    <text x="790" y="749" fill="#666">everything optional except joy1 + B</text>
  </g>
</svg>
