<svg xmlns="http://www.w3.org/2000/svg" width="1400" height="1020" viewBox="0 0 1400 1020" font-family="monospace">
  <rect width="1400" height="1020" fill="#fafafa"/>
  <text x="700" y="44" text-anchor="middle" font-size="24" font-weight="bold" fill="#222">CyclUno deck — sheet 1/2: SIGNAL wiring (W1–W17)</text>
  <text x="700" y="70" text-anchor="middle" font-size="13" fill="#666">every Uno pin shown · one wire per signal · power + GND wires are on sheet 2 · crossings without dots are not joined</text>

  <!-- ================= Arduino Uno ================= -->
  <rect x="560" y="140" width="280" height="620" rx="10" fill="#0f7391" stroke="#0a5468" stroke-width="2"/>
  <text x="700" y="170" text-anchor="middle" font-size="16" font-weight="bold" fill="#fff">Arduino Uno R3</text>
  <text x="700" y="742" text-anchor="middle" font-size="11" fill="#bfe3ee">USB → host (115200, v2 frames)</text>

  <!-- left header labels (digital side, physical order) -->
  <g font-size="12" fill="#fff">
    <text x="572" y="214">SCL</text><text x="572" y="244">SDA</text>
    <text x="572" y="274">AREF</text><text x="572" y="304">GND</text>
    <text x="572" y="334">D13</text><text x="572" y="364">D12</text>
    <text x="572" y="394">D11</text><text x="572" y="424">D10</text>
    <text x="572" y="454">D9</text><text x="572" y="484">D8</text>
    <text x="572" y="514">D7</text><text x="572" y="544">D6</text>
    <text x="572" y="574">D5</text><text x="572" y="604">D4</text>
    <text x="572" y="634">D3</text><text x="572" y="664">D2</text>
    <text x="572" y="694">D1 TX</text><text x="572" y="724">D0 RX</text>
  </g>
  <!-- right header labels (power + analog, physical order) -->
  <g font-size="12" fill="#fff" text-anchor="end">
    <text x="828" y="214">IOREF</text><text x="828" y="244">RESET</text>
    <text x="828" y="274">3V3</text><text x="828" y="304">5V</text>
    <text x="828" y="334">GND</text><text x="828" y="364">GND</text>
    <text x="828" y="394">VIN</text>
    <text x="828" y="454">A0</text><text x="828" y="484">A1</text>
    <text x="828" y="514">A2</text><text x="828" y="544">A3</text>
    <text x="828" y="574">A4</text><text x="828" y="604">A5</text>
  </g>
  <!-- pin dots -->
  <g fill="#0a5468">
    <circle cx="560" cy="210" r="4"/><circle cx="560" cy="240" r="4"/>
    <circle cx="560" cy="270" r="4"/><circle cx="560" cy="300" r="4"/>
    <circle cx="560" cy="330" r="4"/><circle cx="560" cy="360" r="4"/>
    <circle cx="560" cy="390" r="4"/><circle cx="560" cy="420" r="4"/>
    <circle cx="560" cy="450" r="4"/><circle cx="560" cy="480" r="4"/>
    <circle cx="560" cy="510" r="4"/><circle cx="560" cy="540" r="4"/>
    <circle cx="560" cy="570" r="4"/><circle cx="560" cy="600" r="4"/>
    <circle cx="560" cy="630" r="4"/><circle cx="560" cy="660" r="4"/>
    <circle cx="560" cy="690" r="4"/><circle cx="560" cy="720" r="4"/>
    <circle cx="840" cy="210" r="4"/><circle cx="840" cy="240" r="4"/>
    <circle cx="840" cy="270" r="4"/><circle cx="840" cy="300" r="4"/>
    <circle cx="840" cy="330" r="4"/><circle cx="840" cy="360" r="4"/>
    <circle cx="840" cy="390" r="4"/>
    <circle cx="840" cy="450" r="4"/><circle cx="840" cy="480" r="4"/>
    <circle cx="840" cy="510" r="4"/><circle cx="840" cy="540" r="4"/>
    <circle cx="840" cy="570" r="4"/><circle cx="840" cy="600" r="4"/>
  </g>

  <!-- unused / special pin notes -->
  <g font-size="11" fill="#999">
    <text x="530" y="214" text-anchor="end">= A5 dup, leave free —</text>
    <text x="530" y="244" text-anchor="end">= A4 dup, leave free —</text>
    <text x="530" y="274" text-anchor="end">unused —</text>
    <text x="530" y="694" text-anchor="end">USB serial, keep free —</text>
    <text x="530" y="724" text-anchor="end">USB serial, keep free —</text>
    <text x="875" y="214">— unused</text>
    <text x="875" y="244">— unused</text>
    <text x="875" y="274">— unused</text>
    <text x="875" y="394">— unused</text>
  </g>

  <!-- GND / power tags pointing at sheet 2 -->
  <rect x="230" y="288" width="300" height="26" rx="6" fill="none" stroke="#333" stroke-width="1.5" stroke-dasharray="5,4"/>
  <text x="380" y="305" text-anchor="middle" font-size="11" fill="#333">GND — chain C start (sheet 2)</text>
  <line x1="530" y1="300" x2="560" y2="300" stroke="#333" stroke-width="2" stroke-dasharray="5,4"/>
  <rect x="920" y="288" width="300" height="26" rx="6" fill="none" stroke="#b02e2e" stroke-width="1.5" stroke-dasharray="5,4"/>
  <text x="1070" y="305" text-anchor="middle" font-size="11" fill="#b02e2e">5V — chain B start (sheet 2)</text>
  <line x1="860" y1="300" x2="920" y2="300" stroke="#d62828" stroke-width="2" stroke-dasharray="5,4"/>
  <rect x="920" y="318" width="300" height="26" rx="6" fill="none" stroke="#333" stroke-width="1.5" stroke-dasharray="5,4"/>
  <text x="1070" y="335" text-anchor="middle" font-size="11" fill="#333">GND — chain A start (sheet 2)</text>
  <line x1="860" y1="330" x2="920" y2="330" stroke="#333" stroke-width="2" stroke-dasharray="5,4"/>
  <text x="875" y="364" font-size="11" fill="#999">— spare GND</text>

  <!-- D13 note -->
  <rect x="290" y="318" width="240" height="26" rx="6" fill="none" stroke="#999" stroke-dasharray="5,4"/>
  <text x="410" y="335" text-anchor="middle" font-size="11" fill="#666">D13 onboard LED = APP mode</text>
  <line x1="530" y1="330" x2="560" y2="330" stroke="#999" stroke-width="2" stroke-dasharray="5,4"/>

  <!-- ================= LEFT modules ================= -->

  <!-- buttons Y X MODE (wires 360/390/420) -->
  <rect x="120" y="346" width="320" height="92" rx="8" fill="#eef6ee" stroke="#5a8a5a" stroke-width="2"/>
  <g font-size="12" fill="#333">
    <text x="134" y="364">[ Y ]    leg1  W11 ·  leg2→chain C</text>
    <text x="134" y="394">[ X ]    leg1  W10 ·  leg2→chain C</text>
    <text x="134" y="424">[MODE]   leg1  W9  ·  leg2→chain C</text>
  </g>
  <line x1="440" y1="360" x2="560" y2="360" stroke="#2a9d3f" stroke-width="3"/>
  <line x1="440" y1="390" x2="560" y2="390" stroke="#55b552" stroke-width="3"/>
  <line x1="440" y1="420" x2="560" y2="420" stroke="#8ac926" stroke-width="3"/>

  <!-- LEDs (wires 510/540) -->
  <rect x="120" y="494" width="320" height="64" rx="8" fill="#fdf3e7" stroke="#c77b30" stroke-width="2"/>
  <g font-size="12" fill="#333">
    <text x="134" y="514">LINK LED  anode W6 · cathode→220Ω→C</text>
    <text x="134" y="544">REC LED   anode W5 · cathode→220Ω→C</text>
  </g>
  <line x1="440" y1="510" x2="560" y2="510" stroke="#f9a03f" stroke-width="3"/>
  <line x1="440" y1="540" x2="560" y2="540" stroke="#d94a2b" stroke-width="3"/>

  <!-- button B (wire 570) -->
  <rect x="120" y="560" width="320" height="26" rx="6" fill="#eef6ee" stroke="#5a8a5a" stroke-width="2"/>
  <text x="134" y="577" font-size="12" fill="#333">[ B ]    leg1  W4  ·  leg2→chain C</text>
  <line x1="440" y1="570" x2="560" y2="570" stroke="#5a8a5a" stroke-width="3"/>

  <!-- KY-040 (silkscreen order CLK DT SW + GND) -->
  <rect x="120" y="612" width="320" height="140" rx="8" fill="#f3ecfa" stroke="#7b4fa6" stroke-width="2"/>
  <g font-size="12" fill="#333">
    <text x="134" y="634">CLK   W1 → D2 (interrupt)</text>
    <text x="134" y="664">DT    W2 → D3 (interrupt)</text>
    <text x="134" y="694">SW    W8 → D9  wheel click</text>
    <text x="134" y="718">+     → chain B   GND → chain A</text>
  </g>
  <text x="134" y="742" font-size="11" font-weight="bold" fill="#5b3480">KY-040 wheel — silkscreen: CLK DT SW + GND</text>
  <!-- CLK 630 -> D2 660, DT 660 -> D3 630 (small crossing) -->
  <path d="M 440 630 H 496 V 660 H 560" fill="none" stroke="#7b2cbf" stroke-width="3"/>
  <path d="M 440 660 H 472 V 630 H 560" fill="none" stroke="#9d4edd" stroke-width="3"/>
  <!-- SW 690 -> up channel x=516 -> D9 450 -->
  <path d="M 440 690 H 516 V 450 H 560" fill="none" stroke="#c77dff" stroke-width="3"/>

  <!-- ================= RIGHT modules ================= -->

  <!-- HW-504 #1 (A0 450 / A1 480 straight, SW routed) -->
  <rect x="960" y="420" width="360" height="112" rx="8" fill="#eaf0fa" stroke="#3a6ea5" stroke-width="2"/>
  <g font-size="12" fill="#333">
    <text x="974" y="454">VRy   W12 → A0   scroll HUD</text>
    <text x="974" y="484">VRx   W13 → A1   A / B flicks</text>
    <text x="974" y="509">SW    W3  → D4   button A</text>
  </g>
  <text x="974" y="526" font-size="11" font-weight="bold" fill="#274c77">HW-504 #1 nav — silkscreen: GND +5V VRx VRy SW · pwr → chains A/B</text>
  <line x1="860" y1="450" x2="960" y2="450" stroke="#3a6ea5" stroke-width="3"/>
  <line x1="860" y1="480" x2="960" y2="480" stroke="#6096ba" stroke-width="3"/>
  <!-- J1 SW: 505 -> down x=934 -> bottom y=840 -> left x=544 -> up to 600 -> D4 -->
  <path d="M 960 505 H 934 V 840 H 544 V 600 H 560" fill="none" stroke="#3a6ea5" stroke-width="3" stroke-dasharray="8,5"/>

  <!-- HW-504 #2 (elbows to A2 510 / A3 540) -->
  <rect x="960" y="560" width="360" height="112" rx="8" fill="#e8f4f4" stroke="#177e89" stroke-width="2"/>
  <g font-size="12" fill="#333">
    <text x="974" y="589">VRy   W14 → A2   pad Y axis</text>
    <text x="974" y="619">VRx   W15 → A3   pad X axis</text>
    <text x="974" y="644">SW    W7  → D8   stick click</text>
  </g>
  <text x="974" y="662" font-size="11" font-weight="bold" fill="#0f5e66">HW-504 #2 app — silkscreen: GND +5V VRx VRy SW · pwr → chains A/B</text>
  <path d="M 960 585 H 918 V 510 H 860" fill="none" stroke="#177e89" stroke-width="3"/>
  <path d="M 960 615 H 902 V 540 H 860" fill="none" stroke="#4cb8c4" stroke-width="3"/>
  <!-- J2 SW: 640 -> down x=950 -> bottom y=860 -> left x=528 -> up to 480 -> D8 -->
  <path d="M 960 640 H 950 V 860 H 528 V 480 H 560" fill="none" stroke="#177e89" stroke-width="3" stroke-dasharray="8,5"/>

  <!-- OLED (elbows to A4 570 / A5 600) -->
  <rect x="960" y="690" width="360" height="100" rx="8" fill="#fef7e6" stroke="#c9a227" stroke-width="2"/>
  <g font-size="12" fill="#333">
    <text x="974" y="719">SDA   W16 → A4</text>
    <text x="974" y="749">SCL   W17 → A5</text>
  </g>
  <text x="974" y="774" font-size="11" font-weight="bold" fill="#8a6d1a">OLED 128x128 SSD1327/SH1107 — I2C 0x3C · VCC/GND → chains B/A · check silkscreen order!</text>
  <path d="M 960 715 H 886 V 570 H 860" fill="none" stroke="#e9c46a" stroke-width="3"/>
  <path d="M 960 745 H 870 V 600 H 860" fill="none" stroke="#f4a261" stroke-width="3"/>

  <!-- wire number labels on the long routed nets -->
  <g font-size="11" font-weight="bold">
    <text x="700" y="834" fill="#3a6ea5">W3 (J1 SW → D4)</text>
    <text x="700" y="878" fill="#177e89">W7 (J2 SW → D8)</text>
    <text x="470" y="444" fill="#c77dff">W8</text>
  </g>

  <!-- ================= legend ================= -->
  <rect x="120" y="900" width="1200" height="96" rx="8" fill="#f0f0f0" stroke="#ccc"/>
  <g font-size="12" fill="#333">
    <text x="140" y="926" font-weight="bold">17 signal wires — W1..W17 (see the wire list in WIRING.md for lengths/colors):</text>
    <text x="140" y="950">W1 D2-CLK · W2 D3-DT · W3 D4-J1SW · W4 D5-B · W5 D6-REC · W6 D7-LINK · W7 D8-J2SW · W8 D9-KYSW · W9 D10-MODE</text>
    <text x="140" y="972">W10 D11-X · W11 D12-Y · W12 A0-J1VRy · W13 A1-J1VRx · W14 A2-J2VRy · W15 A3-J2VRx · W16 A4-SDA · W17 A5-SCL</text>
    <text x="1180" y="950" fill="#666">dashed = long route</text>
    <text x="1180" y="972" fill="#666">power → sheet 2</text>
  </g>
</svg>
